<mxfile host="65bd71144e">
    <diagram id="7sBfcR07SuZQhpx3cyJS" name="第 1 页">
        <mxGraphModel dx="876" dy="777" grid="1" gridSize="10" guides="1" tooltips="1" connect="1" arrows="1" fold="1" page="1" pageScale="1" pageWidth="827" pageHeight="1169" math="0" shadow="0">
            <root>
                <mxCell id="0"/>
                <mxCell id="1" parent="0"/>
                <mxCell id="46" style="edgeStyle=orthogonalEdgeStyle;html=1;exitX=1;exitY=0.5;exitDx=0;exitDy=0;entryX=0;entryY=0.5;entryDx=0;entryDy=0;fontFamily=Comic Sans MS;" edge="1" parent="1" source="50" target="53">
                    <mxGeometry relative="1" as="geometry">
                        <mxPoint x="290" y="190" as="targetPoint"/>
                        <Array as="points">
                            <mxPoint x="260" y="245"/>
                            <mxPoint x="260" y="185"/>
                        </Array>
                    </mxGeometry>
                </mxCell>
                <mxCell id="47" value="/api/user/..." style="edgeLabel;html=1;align=center;verticalAlign=middle;resizable=0;points=[];fontFamily=Comic Sans MS;" vertex="1" connectable="0" parent="46">
                    <mxGeometry x="0.224" y="-2" relative="1" as="geometry">
                        <mxPoint x="7" y="-2" as="offset"/>
                    </mxGeometry>
                </mxCell>
                <mxCell id="48" style="edgeStyle=orthogonalEdgeStyle;html=1;exitX=1;exitY=0.5;exitDx=0;exitDy=0;entryX=0;entryY=0.5;entryDx=0;entryDy=0;fontFamily=Comic Sans MS;" edge="1" parent="1" source="50" target="56">
                    <mxGeometry relative="1" as="geometry">
                        <mxPoint x="270" y="340" as="targetPoint"/>
                        <Array as="points">
                            <mxPoint x="260" y="245"/>
                            <mxPoint x="260" y="305"/>
                        </Array>
                    </mxGeometry>
                </mxCell>
                <mxCell id="49" value="/api/business/..." style="edgeLabel;html=1;align=center;verticalAlign=middle;resizable=0;points=[];fontFamily=Comic Sans MS;" vertex="1" connectable="0" parent="48">
                    <mxGeometry x="0.056" y="-1" relative="1" as="geometry">
                        <mxPoint x="28" y="-1" as="offset"/>
                    </mxGeometry>
                </mxCell>
                <mxCell id="50" value="reverse proxy" style="rounded=0;whiteSpace=wrap;html=1;fontFamily=Comic Sans MS;fillColor=#dae8fc;strokeColor=#6c8ebf;" vertex="1" parent="1">
                    <mxGeometry x="160" y="190" width="50" height="110" as="geometry"/>
                </mxCell>
                <mxCell id="51" value="" style="edgeStyle=none;html=1;fontFamily=Comic Sans MS;" edge="1" parent="1" source="52" target="50">
                    <mxGeometry relative="1" as="geometry"/>
                </mxCell>
                <mxCell id="52" value="user or client" style="shape=umlActor;verticalLabelPosition=bottom;verticalAlign=top;html=1;outlineConnect=0;fontFamily=Comic Sans MS;" vertex="1" parent="1">
                    <mxGeometry x="70" y="215" width="30" height="60" as="geometry"/>
                </mxCell>
                <mxCell id="53" value="User Server" style="rounded=0;whiteSpace=wrap;html=1;fontFamily=Comic Sans MS;" vertex="1" parent="1">
                    <mxGeometry x="400" y="155" width="120" height="60" as="geometry"/>
                </mxCell>
                <mxCell id="54" value="" style="edgeStyle=none;html=1;fontFamily=Comic Sans MS;" edge="1" parent="1" source="56" target="53">
                    <mxGeometry relative="1" as="geometry"/>
                </mxCell>
                <mxCell id="55" value="/internal/check-session" style="edgeLabel;html=1;align=center;verticalAlign=middle;resizable=0;points=[];fontFamily=Comic Sans MS;" vertex="1" connectable="0" parent="54">
                    <mxGeometry x="0.4333" y="-4" relative="1" as="geometry">
                        <mxPoint y="13" as="offset"/>
                    </mxGeometry>
                </mxCell>
                <mxCell id="56" value="Business Server" style="rounded=0;whiteSpace=wrap;html=1;fontFamily=Comic Sans MS;" vertex="1" parent="1">
                    <mxGeometry x="400" y="275" width="120" height="60" as="geometry"/>
                </mxCell>
                <mxCell id="57" value="1. Login and store cookie(or token)" style="text;html=1;align=center;verticalAlign=middle;resizable=0;points=[];autosize=1;strokeColor=none;fillColor=none;fontFamily=Comic Sans MS;" vertex="1" parent="1">
                    <mxGeometry x="125" y="140" width="220" height="30" as="geometry"/>
                </mxCell>
                <mxCell id="58" value="2. Request with cookie(or token)" style="text;html=1;align=center;verticalAlign=middle;resizable=0;points=[];autosize=1;strokeColor=none;fillColor=none;fontFamily=Comic Sans MS;" vertex="1" parent="1">
                    <mxGeometry x="145" y="330" width="200" height="30" as="geometry"/>
                </mxCell>
                <mxCell id="59" value="3. Exchange cookie(token) to user data&amp;nbsp;" style="text;html=1;align=center;verticalAlign=middle;resizable=0;points=[];autosize=1;strokeColor=none;fillColor=none;fontFamily=Comic Sans MS;" vertex="1" parent="1">
                    <mxGeometry x="540" y="230" width="250" height="30" as="geometry"/>
                </mxCell>
            </root>
        </mxGraphModel>
    </diagram>
</mxfile>
